<svg id="Layer_1" data-name="Layer 1" xmlns="http://www.w3.org/2000/svg" viewBox="0 0 50 50"><defs><style>.cls-1{fill:#049abc;}.cls-2{fill:none;stroke:#049abc;stroke-miterlimit:10;stroke-width:2.5px;}</style></defs><title>Logo</title><path class="cls-1" d="M48,2V48H2V2H48m2-2H0V50H50V0Z"/><path class="cls-2" d="M42.21-7C25.46-16.41,8.42-12,3.81-2.92c-5,9.81,3.71,26.86,12.53,28.18,5.68.85,9-3.5,15.65-3.32C41.72,22.2,54.14,34.07,49.72,46c-2.85,7.67,5.56,16.76-5.12,15.35"/><path class="cls-2" d="M53.51-4.55C41.58-7.14,12.88-3.66,9.38,3.69,7.1,8.49,11.25,17.57,16,18.3c4.44.69,7-4.05,13.92-6.36C38.69,9,49.06,13.68,54.16,19.77,64.09,31.64,62.77,53,50,72.23"/><path class="cls-2" d="M9-27.11C-5-13.16-7.95,6.52.2,19.14,6.48,28.87,18.91,35.79,26.46,32.3c1.33-.61,5.3-2.14,8.27-1.68S40.64,33,41.3,36.14c.91,4.24-2.7,8-6.57,9.12-4.09,1.2-4.35-1.16-9.73-.65-3.86.36-6.39,4.11-8.19,5.51"/><path class="cls-2" d="M-18.07-5.55c-1.46,20.94,3.4,27.74,8.38,30.93,3.29,2.1,14.89,10,23.33,11.49.63.11,4.6.37,4.93,2.64C19,42.74,9.65,50,7.11,52.31,5,54.25-3,64.51,2.6,58"/><path class="cls-2" d="M23,5.3c-4.36,0-5.09-.36-6.29.34-1.54.92-2.86,2.94-2.34,4.25.7,1.79,4.73,2,7.58,1.09,3.52-1.13,6.32-4.3,5.77-5.39C27.45,5.1,26.69,5.33,23,5.3Z"/><path class="cls-2" d="M-30.48-3.11C-31.95,17.83-27.25,25.77-22.27,29-19,31.06-5.5,36.38,2.82,39.15c2,.65,5.12,1.6,5.41,2.92.6,2.74-3.89,6.63-6.43,9-2.14,1.94,1.43,8,.29,10.09"/></svg>